<?xml version="1.0" encoding="UTF-8" standalone="no"?><!DOCTYPE svg PUBLIC "-//W3C//DTD SVG 1.1//EN" "http://www.w3.org/Graphics/SVG/1.1/DTD/svg11.dtd"><svg width="100%" height="100%" viewBox="0 0 189 90" version="1.1" xmlns="http://www.w3.org/2000/svg" xmlns:xlink="http://www.w3.org/1999/xlink" xml:space="preserve" xmlns:serif="http://www.serif.com/" style="fill-rule:evenodd;clip-rule:evenodd;stroke-linejoin:round;stroke-miterlimit:2;"><g><rect x="0" y="0" width="3.885" height="89.84" style="fill:url(#_Linear1);"/><path d="M183.291,88.211l-41.706,-86.523l-41.815,86.748c-0.51,0.913 -1.262,1.402 -2.293,1.404c-0,-0 -2.724,-0 -2.724,-0l0.837,-1.689l42.492,-88.151l7.005,0l42.492,88.151c-0,0 0.837,1.689 0.837,1.689l-2.727,-0c-1.106,-0.005 -1.865,-0.591 -2.398,-1.629Z" style="fill:url(#_Linear2);"/><path d="M55.424,88.134l-34.453,-40.705l-2.188,-2.509l2.188,-2.51l35.895,-42.41l5.091,0l-2.125,2.51l-35.896,42.409l38.021,44.921l-2.753,-0c-1.577,-0.027 -2.808,-0.644 -3.78,-1.706Z" style="fill:url(#_Linear3);"/></g><defs><linearGradient id="_Linear1" x1="0" y1="0" x2="1" y2="0" gradientUnits="userSpaceOnUse" gradientTransform="matrix(5.50109e-15,89.8396,-89.8396,5.50109e-15,79.794,-4.54747e-13)"><stop offset="0" style="stop-color:#fff;stop-opacity:1"/><stop offset="1" style="stop-color:#818181;stop-opacity:1"/></linearGradient><linearGradient id="_Linear2" x1="0" y1="0" x2="1" y2="0" gradientUnits="userSpaceOnUse" gradientTransform="matrix(5.50109e-15,89.8396,-89.8396,5.50109e-15,79.794,0)"><stop offset="0" style="stop-color:#fff;stop-opacity:1"/><stop offset="1" style="stop-color:#818181;stop-opacity:1"/></linearGradient><linearGradient id="_Linear3" x1="0" y1="0" x2="1" y2="0" gradientUnits="userSpaceOnUse" gradientTransform="matrix(5.50109e-15,89.8396,-89.8396,5.50109e-15,79.794,0)"><stop offset="0" style="stop-color:#fff;stop-opacity:1"/><stop offset="1" style="stop-color:#818181;stop-opacity:1"/></linearGradient></defs></svg>