<?xml version="1.0" encoding="UTF-8" standalone="no"?><!DOCTYPE svg PUBLIC "-//W3C//DTD SVG 1.1//EN" "http://www.w3.org/Graphics/SVG/1.1/DTD/svg11.dtd"><svg width="100%" height="100%" viewBox="0 0 9025 4591" version="1.1" xmlns="http://www.w3.org/2000/svg" xmlns:xlink="http://www.w3.org/1999/xlink" xml:space="preserve" xmlns:serif="http://www.serif.com/" style="fill-rule:evenodd;clip-rule:evenodd;stroke-linejoin:round;stroke-miterlimit:2;"><path d="M5135.92,1506.07c-132.535,2.902 -233.408,2.177 -302.621,-2.177c-69.213,-4.353 -130.326,-7.981 -183.34,-10.883c-20.617,-0 -52.278,-2.177 -94.984,-6.53c-42.705,-4.354 -71.421,-5.079 -86.147,-2.177l-0,8.707c-26.507,243.789 -39.024,492.658 -37.552,746.606c1.473,253.947 5.891,510.797 13.254,770.549c7.363,259.752 12.517,521.681 15.462,785.786c2.945,264.106 -5.89,526.76 -26.507,787.963c29.452,-8.707 83.939,-10.883 163.46,-6.53c79.521,4.353 162.723,7.981 249.607,10.883c86.884,2.903 167.878,2.177 242.981,-2.176c75.103,-4.354 124.436,-18.139 147.997,-41.357c-14.726,-246.692 -23.561,-496.286 -26.507,-748.783c-2.945,-252.496 -2.209,-505.718 2.209,-759.666c4.418,-253.947 10.309,-507.169 17.672,-759.666c7.363,-252.496 11.044,-503.541 11.044,-753.135l0,-17.414l-106.028,0Z" style="fill:#333;fill-rule:nonzero;"/><path d="M7424.82,4180.78c-2.945,-23.218 -3.681,-50.065 -2.209,-80.539c1.473,-30.475 3.682,-60.224 6.627,-89.247c2.945,-31.926 4.418,-63.851 4.418,-95.777c-23.562,2.902 -65.531,3.628 -125.908,2.177c-60.377,-1.451 -129.59,-3.628 -207.638,-6.53c-78.049,-2.903 -160.515,-6.531 -247.399,-10.884c-86.884,-4.354 -168.614,-7.982 -245.19,-10.884c-76.575,-2.902 -143.579,-5.079 -201.011,-6.53c-57.432,-1.451 -96.456,0.726 -117.073,6.53l0,-4.353c2.946,-185.749 3.682,-378.029 2.209,-576.838c-1.472,-198.81 -3.681,-398.345 -6.626,-598.606c-2.946,-200.261 -5.154,-399.796 -6.627,-598.605c-1.473,-198.81 0.736,-392.54 6.627,-581.192c-41.233,-17.414 -95.72,-30.474 -163.46,-39.181c-67.74,-8.707 -136.953,-13.061 -207.638,-13.061c-70.685,0 -136.953,3.628 -198.803,10.884c-61.849,7.256 -107.5,16.688 -136.952,28.298c2.945,203.163 5.89,388.186 8.835,555.07c2.946,166.884 5.891,324.336 8.836,472.354c2.945,148.019 4.418,293.136 4.418,435.35c-0,142.214 -0.736,289.507 -2.209,441.88c-1.473,152.372 -5.154,316.353 -11.045,491.944c-5.89,175.591 -13.253,372.224 -22.089,589.899l0,78.363c356.372,5.804 641.322,8.707 854.85,8.707c213.529,-0 381.407,-1.451 503.633,-4.354c122.227,-2.902 209.111,-5.804 260.652,-8.707c51.542,-2.902 93.511,-2.902 125.909,0c32.397,0 57.431,-0.725 75.103,-2.176c17.671,-1.452 30.188,-14.512 37.551,-39.182c7.363,-24.67 11.045,-63.851 11.045,-117.544c-0,-53.693 -2.945,-132.782 -8.836,-237.266Z" style="fill:#333;fill-rule:nonzero;"/><path d="M9017.69,1523.61c-303.358,-32.308 -614.815,-47.729 -934.371,-46.26c-319.557,1.469 -629.541,3.672 -929.954,6.609c0,2.937 0.737,4.405 2.209,4.405c1.473,0 2.209,1.469 2.209,4.406c-5.89,70.492 -8.836,143.921 -8.836,220.287c0,76.366 0.737,147.592 2.209,213.678c1.473,66.086 4.418,122.627 8.836,169.621c4.418,46.995 9.572,76.366 15.462,88.115c17.672,5.874 48.596,8.811 92.775,8.811c44.178,0 92.774,0.734 145.788,2.203c53.014,1.469 106.028,4.406 159.042,8.812c53.014,4.405 97.192,15.42 132.535,33.043l4.418,4.405c17.671,411.202 28.716,762.193 33.134,1052.97c4.417,290.779 5.89,529.423 4.417,715.932c-1.472,186.51 -3.681,326.759 -6.626,420.748c-2.945,93.989 -2.945,146.858 -0,158.607c53.014,-8.812 110.446,-13.217 172.295,-13.217l187.758,-0c63.322,-0 126.645,-0.735 189.967,-2.203c63.322,-1.469 121.49,-6.609 174.504,-15.42l0,-8.812c-5.89,-320.15 -10.308,-598.446 -13.253,-834.887c-2.946,-236.441 -5.891,-439.105 -8.836,-607.991c-2.945,-168.887 -5.154,-306.933 -6.627,-414.14c-1.472,-107.206 -2.209,-193.852 -2.209,-259.938c0,-66.086 0.737,-114.549 2.209,-145.389c1.473,-30.841 3.682,-53.604 6.627,-68.289c-0,-2.938 0.736,-5.14 2.209,-6.609c1.472,-1.469 2.209,-3.671 2.209,-6.609l13.253,0c138.426,-5.874 248.871,-10.28 331.338,-13.217c82.466,-2.937 151.679,1.469 207.638,13.217c14.726,-105.737 22.825,-221.755 24.298,-348.053c1.472,-126.298 -0.737,-237.909 -6.627,-334.836Z" style="fill:#333;fill-rule:nonzero;"/><path d="M1994.17,2473.28c41.233,-220.892 23.561,-403.496 -53.014,-547.812c-76.576,-144.315 -185.549,-253.289 -326.92,-326.919c-70.685,-32.398 -147.997,-58.905 -231.936,-79.521c-83.939,-20.617 -169.35,-33.134 -256.234,-37.552c-86.884,-4.417 -173.032,-1.472 -258.443,8.836c-85.412,10.308 -163.46,30.189 -234.145,59.641c-141.371,58.904 -261.389,148.733 -360.054,269.487c-98.665,120.755 -165.668,254.762 -201.011,402.023c-35.343,147.261 -33.134,298.94 6.627,455.037c39.76,156.096 127.381,298.94 262.861,428.529c41.233,35.343 86.884,66.268 136.952,92.775c50.069,26.507 104.556,45.651 163.46,57.432c61.85,11.78 128.117,24.298 198.803,37.551c70.685,13.254 136.216,33.134 196.593,59.641c60.377,26.507 112.655,61.113 156.833,103.819c44.178,42.706 70.685,99.401 79.521,170.086c17.671,103.083 -2.209,179.659 -59.641,229.728c-57.431,50.068 -125.171,75.839 -203.22,77.312c-78.048,1.472 -151.679,-21.353 -220.891,-68.477c-69.213,-47.123 -106.765,-117.808 -112.655,-212.056c-100.138,2.946 -212.056,0.737 -335.755,-6.626c-123.7,-7.363 -237.091,-3.682 -340.173,11.044l-0,26.507c-8.836,141.371 16.198,267.279 75.103,377.725c58.904,110.446 138.425,203.956 238.563,280.532c100.137,76.576 214.265,136.217 342.382,178.922c128.117,42.706 256.97,65.531 386.56,68.477c91.302,2.945 180.395,-5.155 267.279,-24.298c86.884,-19.144 167.877,-49.333 242.98,-90.566c75.104,-41.233 142.107,-94.247 201.012,-159.042c58.904,-64.795 106.028,-142.843 141.37,-234.145c35.343,-76.576 61.114,-156.833 77.312,-240.772c16.199,-83.938 22.09,-167.141 17.672,-249.607c-4.418,-82.466 -19.881,-162.724 -46.388,-240.772c-26.506,-78.048 -66.267,-150.943 -119.281,-218.683c-85.411,-126.644 -195.121,-231.2 -329.128,-313.666c-134.008,-82.466 -279.06,-132.535 -435.157,-150.206c-61.849,-8.836 -119.281,-25.034 -172.295,-48.596c-53.014,-23.562 -91.302,-70.685 -114.864,-141.371c-2.945,-20.616 -5.154,-40.496 -6.627,-59.64c-1.472,-19.144 0.737,-39.025 6.627,-59.641c11.781,-82.466 50.805,-138.426 117.073,-167.878c66.267,-29.452 134.744,-36.815 205.429,-22.089c70.685,14.726 131.062,48.596 181.131,101.61c50.069,53.014 66.267,119.282 48.596,198.803c103.083,29.452 213.529,41.969 331.337,37.551c117.809,-4.418 228.255,-15.462 331.338,-33.133l4.418,-0Z" style="fill:#333;fill-rule:nonzero;"/><path d="M3025.95,1490.34c-38.387,200.224 -153.18,362.052 -323.288,484.5l-91.224,65.666l-91.223,-65.666c-50.355,-36.246 -95.863,-75.944 -135.954,-119.046c-3.067,6.591 -5.993,13.276 -8.78,20.053c-36.816,89.514 -62.586,181.915 -77.312,277.204c-14.727,92.402 -25.035,186.969 -30.925,283.702c-5.891,96.733 -10.309,191.3 -13.254,283.701c-2.945,106.839 -3.681,201.407 -2.209,283.702c1.473,82.295 4.418,160.259 8.836,233.891c4.418,73.633 9.572,147.987 15.462,223.063c5.891,75.076 13.254,158.815 22.09,251.217c5.89,57.751 13.989,114.78 24.298,171.087c10.308,56.307 19.88,100.342 28.716,132.105c35.342,124.165 83.938,228.116 145.788,311.855c61.85,83.739 151.679,150.153 269.488,199.241c70.685,28.875 145.052,47.645 223.1,56.307c78.049,8.663 158.306,9.385 240.772,2.166c82.466,-7.219 163.46,-18.769 242.981,-34.651c79.521,-15.881 156.096,-33.928 229.727,-54.141c111.918,-40.426 206.165,-99.621 282.741,-177.584c76.576,-77.964 122.227,-190.578 136.953,-337.843c29.452,-155.928 41.233,-319.796 35.343,-491.605c-5.891,-171.809 -17.672,-334.234 -35.343,-487.274l-4.418,-4.331l-8.836,-0c-29.452,-0 -86.147,-3.61 -170.086,-10.829c-83.939,-7.218 -174.504,-12.272 -271.697,-15.159c-97.192,-2.888 -189.23,-2.166 -276.114,2.166c-86.884,4.331 -149.47,18.047 -187.758,41.147c-5.89,2.888 -8.836,4.331 -8.836,4.331c-2.945,0 -4.418,1.444 -4.418,4.332l0,4.331c5.891,51.976 8.836,95.289 8.836,129.94c0,34.65 -0.736,68.579 -2.209,101.786c-1.472,33.206 -1.472,67.135 0,101.786c1.473,34.65 5.154,75.076 11.045,121.277c14.726,5.775 36.079,9.384 64.058,10.828c27.98,1.444 58.905,1.444 92.775,0c33.87,-1.444 66.267,-2.888 97.192,-4.331c30.925,-1.444 55.223,-0.722 72.894,2.165c8.836,2.888 13.99,15.882 15.463,38.982c1.472,23.101 1.472,49.089 -0,77.964c-1.473,28.875 -4.418,57.029 -8.836,84.461c-4.418,27.431 -8.099,46.922 -11.044,58.473c-11.781,40.425 -29.453,72.91 -53.014,97.454c-23.562,24.544 -51.542,44.035 -83.939,58.473c-41.233,14.438 -86.148,25.988 -134.744,34.651c-48.596,8.662 -94.983,10.106 -139.162,4.331c-41.233,-8.663 -75.103,-21.657 -101.61,-38.982c-55.959,-43.313 -92.774,-102.508 -110.446,-177.584c-17.671,-75.076 -29.452,-144.377 -35.342,-207.903c-8.836,-106.84 -14.726,-219.454 -17.672,-337.843c-2.945,-118.39 -1.472,-233.17 4.418,-344.34c5.891,-111.171 15.463,-215.845 28.716,-314.021c13.254,-98.177 30.189,-181.916 50.805,-251.217c5.891,-23.1 13.99,-46.922 24.298,-71.467c10.308,-24.544 18.408,-39.703 24.298,-45.478c35.343,-34.651 76.576,-51.976 123.7,-51.976c47.123,-0 95.719,1.443 145.788,4.331c44.178,-0 82.466,13.716 114.864,41.148c32.397,27.431 61.113,59.194 86.147,95.289c25.035,36.094 45.651,75.076 61.85,116.945c16.199,41.87 28.716,77.242 37.551,106.118c44.179,5.775 82.467,10.106 114.864,12.994c32.398,2.887 64.059,4.331 94.983,4.331c30.925,-0 61.85,-0.722 92.775,-2.166c30.925,-1.444 68.476,-2.165 112.655,-2.165c47.123,-2.888 80.993,-4.332 101.61,-4.332c20.616,0 33.87,-4.331 39.76,-12.994l4.418,-25.988c20.617,-176.14 4.418,-328.458 -48.596,-456.954c-53.014,-128.496 -132.535,-231.726 -238.563,-309.689c-106.028,-77.964 -232.672,-132.106 -379.933,-162.425c-135.525,-27.903 -277.285,-34.406 -425.273,-19.51Z" style="fill:#333;fill-rule:nonzero;"/><path d="M2348.89,1453.47c-5.277,-21.082 -8.079,-43.136 -8.079,-65.838c-0,-149.359 121.26,-270.62 270.619,-270.62c149.359,0 270.62,121.261 270.62,270.62c-0,22.702 -2.802,44.756 -8.08,65.838c-29.313,163.995 -124.044,294.944 -262.54,394.637c-138.495,-99.693 -233.227,-230.642 -262.54,-394.637Zm262.54,-153.83c48.564,0 87.992,39.428 87.992,87.992c-0,48.564 -39.428,87.991 -87.992,87.991c-48.564,0 -87.991,-39.427 -87.991,-87.991c-0,-48.564 39.427,-87.992 87.991,-87.992Z" style="fill:#ffbf00;"/><g><path d="M3156.26,1050.59c12.714,-9.879 30.798,-7.912 40.359,4.392c9.562,12.304 7.002,30.314 -5.712,40.194c-12.714,9.88 -30.798,7.912 -40.359,-4.392c-9.562,-12.304 -7.002,-30.314 5.712,-40.194Z" style="fill:#d3c8f8;"/><path d="M2644.2,1010.48c12.714,-9.879 30.798,-7.911 40.359,4.392c9.561,12.304 7.002,30.314 -5.712,40.194c-12.714,9.88 -30.799,7.912 -40.36,-4.392c-9.561,-12.303 -7.001,-30.314 5.713,-40.194Z" style="fill:#d3c8f8;"/><path d="M2196.91,1143.13c12.714,-9.88 30.798,-7.912 40.359,4.392c9.561,12.304 7.002,30.314 -5.712,40.194c-12.714,9.88 -30.799,7.912 -40.36,-4.392c-9.561,-12.304 -7.001,-30.314 5.713,-40.194Z" style="fill:#ffbf00;"/><path d="M2365.6,1027.62c-4.387,-1.36 -9.537,-4.246 -15.801,-9.364c-76.908,-69.649 -205.482,-207.147 -265.948,-291.392c-49.29,-68.675 -94.743,-140.307 -135.636,-214.485c-41.309,-74.933 -61.225,-145.494 -48.751,-235.586c14.867,-107.38 135.261,-99.382 188.009,-43.037c66.241,70.758 71.419,182.917 103.331,269.365c22.32,60.46 50.654,118.207 77.782,176.405c37.14,79.677 79.87,156.482 114.997,237.166c2.352,5.404 49.986,125.403 -17.983,110.928Z" style="fill:#ffbf00;"/><path d="M2637.23,819.662c-2.376,-3.005 -4.549,-7.521 -6.427,-14.247c-19.816,-87.812 -42.912,-250.773 -44.443,-342.433c-1.249,-74.719 1.556,-149.991 8.716,-225.179c7.233,-75.952 27.126,-138.987 78.644,-202.527c61.403,-75.732 140.558,-15.777 150.063,51.029c11.937,83.895 -37.93,172.254 -57.124,252.84c-13.424,56.36 -21.411,113.327 -30.443,170.102c-12.366,77.729 -19.512,155.752 -33.745,233.354c-0.953,5.196 -25.299,118.55 -65.241,77.061Z" style="fill:#ffbf00;"/><path d="M2427.68,636.157c-1.944,-1.172 -4.04,-3.189 -6.357,-6.443c-27.468,-43.341 -70.353,-126.281 -87.699,-175.033c-14.139,-39.741 -25.98,-80.521 -35.23,-122.054c-9.345,-41.956 -8.886,-79.322 10.185,-122.756c22.732,-51.769 80.296,-34.208 97.899,-0.213c22.106,42.69 8.462,99.098 11.564,145.725c2.17,32.611 7.664,64.549 12.504,96.576c6.628,43.847 16.395,86.894 21.896,131.015c0.368,2.955 6.3,68.055 -24.762,53.183Z" style="fill:#d3c8f8;"/><path d="M2862.88,716.979c-0.354,-1.883 -0.298,-4.428 0.357,-7.942c10.527,-44.921 35.822,-125.502 54.872,-168.494c15.529,-35.047 32.883,-69.526 52.052,-103.079c19.364,-33.894 41.28,-59.198 76.616,-78.301c42.115,-22.769 62.547,21.256 52.193,54.298c-13.002,41.493 -52.975,72.489 -78.369,106.108c-17.76,23.512 -33.361,48.413 -49.362,73.011c-21.906,33.677 -41.678,68.554 -64.342,101.792c-1.518,2.226 -36.12,50.054 -44.017,22.607Z" style="fill:#61578e;"/><path d="M2809.63,1025.91c0.955,-3.94 3.205,-8.825 7.347,-15.09c56.821,-78.306 170.238,-213.467 240.709,-280.984c57.445,-55.037 117.683,-107.466 180.392,-156.599c63.348,-49.634 124.014,-80.513 203.499,-88.277c94.739,-9.254 94.179,92.935 47.705,148.373c-58.362,69.618 -156.208,96.582 -230.132,140.69c-51.702,30.848 -100.707,66.174 -150.172,100.583c-67.721,47.108 -132.63,98.306 -201.339,143.936c-4.602,3.056 -107.038,67.069 -98.009,7.368Z" style="fill:#ffbf00;"/><path d="M2440.6,797.636c12.714,-9.88 30.798,-7.912 40.359,4.392c9.561,12.304 7.001,30.314 -5.712,40.194c-12.714,9.88 -30.799,7.912 -40.36,-4.392c-9.561,-12.304 -7.001,-30.314 5.713,-40.194Z" style="fill:#61578e;"/><path d="M2138.29,44.955c12.714,-9.88 30.799,-7.912 40.36,4.391c9.561,12.304 7.001,30.314 -5.713,40.194c-12.714,9.88 -30.798,7.912 -40.359,-4.392c-9.561,-12.303 -7.002,-30.314 5.712,-40.193Z" style="fill:#e2f962;"/><path d="M2946.6,200.406c12.714,-9.88 30.798,-7.912 40.359,4.392c9.561,12.303 7.002,30.314 -5.712,40.193c-12.714,9.88 -30.799,7.912 -40.36,-4.391c-9.561,-12.304 -7.001,-30.314 5.713,-40.194Z" style="fill:#ffbf00;"/></g></svg>